<svg fill="#000000" xmlns="http://www.w3.org/2000/svg"  viewBox="0 0 50 50" width="100px" height="100px"><path d="M 25 1 C 18.415543 1 12.465626 3.7729963 8.2734375 8.2128906 A 1.0001 1.0001 0 0 0 8.1191406 9.3710938 L 8.8242188 10.689453 C 5.9595643 14.168285 4.1968687 18.571174 4.0566406 23.392578 C 2.9194923 23.820667 2 24.721399 2 26 L 2 30 C 2 31.64497 3.3550302 33 5 33 L 9 33 A 1.0001 1.0001 0 0 0 10 32 L 10 24 C 10 15.463105 17.093797 8.6116841 25.726562 9.0175781 C 33.78434 9.397715 40 16.348534 40 24.451172 L 40 32 A 1.0001 1.0001 0 0 0 41 33 L 45 33 C 46.64497 33 48 31.64497 48 30 L 48 26 C 48 24.721668 47.080134 23.822815 45.943359 23.394531 C 45.803918 18.583905 44.051592 14.187918 41.197266 10.712891 L 41.890625 9.3554688 A 1.0001 1.0001 0 0 0 41.726562 8.2148438 C 37.534366 3.7738951 31.584457 1 25 1 z M 25 3 C 30.776709 3 35.959637 5.36948 39.755859 9.1386719 L 39.136719 10.347656 A 1.0001 1.0001 0 0 0 39.275391 11.462891 C 42.217362 14.808718 44 19.190446 44 24 A 1.0001 1.0001 0 0 0 44.886719 24.992188 A 1.0001 1.0001 0 0 0 44.978516 25 A 1.0001 1.0001 0 0 0 45 25 C 45.56503 25 46 25.43497 46 26 L 46 30 C 46 30.56503 45.56503 31 45 31 L 42 31 L 42 24.451172 C 42 15.32381 34.974536 7.4513945 25.820312 7.0195312 C 16.077078 6.5614253 8 14.350895 8 24 L 8 31 L 5 31 C 4.4349698 31 4 30.56503 4 30 L 4 26 C 4 25.43497 4.4349698 25 5 25 A 1.0001 1.0001 0 0 0 5.0996094 24.994141 A 1.0001 1.0001 0 0 0 6 24 C 6 19.175242 7.7926014 14.782472 10.75 11.431641 A 1.0001 1.0001 0 0 0 10.882812 10.298828 L 10.255859 9.1269531 C 14.051179 5.3650042 19.228862 3 25 3 z M 15.875 27 C 14.771444 27 13.897331 27.699758 13.496094 28.4375 C 13.094856 29.175242 13 29.938485 13 30.546875 C 13 33.111941 14.181836 34.74466 15.6875 35.416016 C 17.193164 36.087371 18.836001 36 20.0625 36 C 20.5975 36 21.391853 36.01918 22.1875 35.808594 C 22.585323 35.703302 23.004938 35.538537 23.373047 35.195312 C 23.741155 34.852089 24 34.291275 24 33.728516 C 24 33.017551 23.683291 32.429386 23.148438 31.703125 C 22.613582 30.976864 21.813303 30.136465 20.646484 29.146484 C 19.647903 28.298864 17.886556 27 15.875 27 z M 15.875 29 C 16.863444 29 18.566097 30.003495 19.353516 30.671875 C 20.436697 31.590894 21.136418 32.341932 21.539062 32.888672 C 21.941709 33.435411 22 33.80248 22 33.728516 C 22 33.74 22.000962 33.731584 22.001953 33.736328 C 21.982072 33.753267 21.873836 33.822581 21.675781 33.875 C 21.269894 33.982423 20.5975 34 20.0625 34 C 18.792999 34 17.403289 33.991738 16.501953 33.589844 C 15.600617 33.18795 15 32.596809 15 30.546875 C 15 30.200265 15.09264 29.689086 15.253906 29.392578 C 15.415169 29.09607 15.478556 29 15.875 29 z M 34.332031 29 C 32.587928 29 31.00563 29.921308 30.103516 30.537109 C 29.060839 31.248215 28.340916 31.852508 27.845703 32.392578 C 27.35049 32.932649 27 33.375076 27 34.091797 C 27 34.623411 27.317798 35.149066 27.673828 35.416016 C 28.029859 35.682965 28.392133 35.791148 28.740234 35.865234 C 29.436436 36.013408 30.135828 36 30.611328 36 C 31.703553 36 33.138821 36.064599 34.474609 35.585938 C 35.142503 35.346607 35.804165 34.942581 36.277344 34.296875 C 36.750523 33.651169 37 32.802856 37 31.818359 C 37 31.314114 36.899997 30.690948 36.494141 30.091797 C 36.088284 29.492646 35.282602 29 34.332031 29 z M 34.332031 31 C 34.71446 31 34.743497 31.07549 34.837891 31.214844 C 34.932284 31.354193 35 31.640605 35 31.818359 C 35 32.482363 34.854602 32.855222 34.664062 33.115234 C 34.473523 33.375247 34.202762 33.559081 33.800781 33.703125 C 32.996819 33.991214 31.738103 34 30.611328 34 C 30.139642 34 29.540259 33.985593 29.167969 33.908203 C 29.208179 33.830973 29.16007 33.918873 29.320312 33.744141 C 29.6586 33.375211 30.273146 32.842347 31.230469 32.189453 C 31.916354 31.721257 33.410134 31 34.332031 31 z M 40.265625 35 A 1.0001 1.0001 0 0 0 39.34375 35.615234 C 39.34375 35.615234 36.944205 41.187084 32.378906 43.876953 C 27.687202 46.642809 23 46.652344 23 46.652344 A 1.0001 1.0001 0 0 0 22.830078 48.638672 C 22.830078 48.638672 22.995834 48.647738 23 48.648438 L 23 48.652344 C 23 48.652344 23.025231 48.648437 23.025391 48.648438 C 23.192508 48.676698 25.683753 49.110153 28.96875 48.974609 C 32.361671 48.834612 36.496045 48.124183 39.308594 45.466797 C 41.587806 43.312883 42.100081 40.764851 41.984375 38.853516 C 41.868669 36.94218 41.158203 35.546875 41.158203 35.546875 A 1.0001 1.0001 0 0 0 40.265625 35 z M 39.917969 38.679688 C 39.938619 38.839334 39.977821 38.799837 39.988281 38.972656 C 40.078321 40.460071 39.767334 42.282586 37.935547 44.013672 C 36.246945 45.609117 33.704972 46.27291 31.185547 46.625 C 31.922102 46.301067 32.642432 46.042987 33.394531 45.599609 C 36.93768 43.51199 38.789685 40.714156 39.917969 38.679688 z"/></svg>